# xmcd
#
# Track frame offsets:
#	150
#	10923
#	27803
#	45379
#	64470
#	76990
#	90809
#	104315
#	116638
#	128845
#	139415
#	153361
#	164558
#	177395
#	188188
#	202864
#	218757
#	233830
#
# Disc length: 3320 seconds
#
# Revision: 0
# Processed by: cddbd v1.5.2PL0 Copyright (c) Steve Scherf et al.
# Submitted via: EZCDAudioConverter 2.1.7.1
#
DISCID=ec0cf612
DTITLE=Jackie Mittoo - Striker Showcase 2/2
DYEAR=1900
DGENRE=
TTITLE0=The Thriller
TTITLE1=You'll Never Find
TTITLE2=A Rocking Sensation
TTITLE3=World Of Love
TTITLE4=Creative Rock
TTITLE5=The Avenger
TTITLE6=The Penetrator
TTITLE7=Mediator
TTITLE8=A Standing Ovation
TTITLE9=Jah Rock Style
TTITLE10=Merry Go Round
TTITLE11=Locks And Keys
TTITLE12=Hot Blood
TTITLE13=Man On The Hill
TTITLE14=Disco Jack
TTITLE15=Channel One Crash
TTITLE16=Brain Mark
TTITLE17=Dub Cut
EXTD=
EXTT0=
EXTT1=
EXTT2=
EXTT3=
EXTT4=
EXTT5=
EXTT6=
EXTT7=
EXTT8=
EXTT9=
EXTT10=
EXTT11=
EXTT12=
EXTT13=
EXTT14=
EXTT15=
EXTT16=
EXTT17=
PLAYORDER=
